<svg width="20" height="20" viewBox="0 0 20 20" fill="none" xmlns="http://www.w3.org/2000/svg">
<g clip-path="url(#clip0_475_5344)">
<path d="M19.7879 10.2249C19.7879 9.56659 19.7296 8.94159 19.6296 8.33325H10.2129V12.0916H15.6046C15.3629 13.3249 14.6546 14.3666 13.6046 15.0749V17.5749H16.8212C18.7046 15.8333 19.7879 13.2666 19.7879 10.2249Z" fill="#4285F4"/>
<path d="M10.2131 20.0001C12.9131 20.0001 15.1714 19.1001 16.8214 17.5751L13.6048 15.0751C12.7048 15.6751 11.5631 16.0418 10.2131 16.0418C7.60475 16.0418 5.39642 14.2834 4.60475 11.9084H1.28809V14.4834C2.92975 17.7501 6.30475 20.0001 10.2131 20.0001Z" fill="#34A853"/>
<path d="M4.60456 11.9083C4.39622 11.3083 4.28789 10.6666 4.28789 9.99993C4.28789 9.33327 4.40456 8.6916 4.60456 8.0916V5.5166H1.28789C0.604556 6.8666 0.212891 8.38327 0.212891 9.99993C0.212891 11.6166 0.604556 13.1333 1.28789 14.4833L4.60456 11.9083Z" fill="#FBBC05"/>
<path d="M10.2131 3.95833C11.6881 3.95833 13.0048 4.46667 14.0464 5.45834L16.8964 2.60833C15.1714 0.991667 12.9131 0 10.2131 0C6.30475 0 2.92975 2.25 1.28809 5.51667L4.60475 8.09167C5.39642 5.71667 7.60475 3.95833 10.2131 3.95833Z" fill="#EA4335"/>
</g>
<defs>
<clipPath id="clip0_475_5344">
<rect width="20" height="20" fill="white"/>
</clipPath>
</defs>
</svg>
